<svg width="38" height="38" xmlns="http://www.w3.org/2000/svg" xmlns:xlink="http://www.w3.org/1999/xlink" xml:space="preserve" overflow="hidden"><g transform="translate(-276 -108)"><path d="M301.729 119.479 299.354 119.479 299.354 117.104 301.729 117.104 301.729 119.479ZM301.729 125.812 299.354 125.812 299.354 123.438 301.729 123.438 301.729 125.812ZM301.729 132.146 299.354 132.146 299.354 129.771 301.729 129.771 301.729 132.146ZM301.729 138.479 299.354 138.479 299.354 136.104 301.729 136.104 301.729 138.479ZM296.188 119.479 293.812 119.479 293.812 117.104 296.188 117.104 296.188 119.479ZM296.188 125.812 293.812 125.812 293.812 123.438 296.188 123.438 296.188 125.812ZM296.188 132.146 293.812 132.146 293.812 129.771 296.188 129.771 296.188 132.146ZM296.188 140.854 293.812 140.854 293.812 136.104 296.188 136.104 296.188 140.854ZM290.646 119.479 288.271 119.479 288.271 117.104 290.646 117.104 290.646 119.479ZM290.646 125.812 288.271 125.812 288.271 123.438 290.646 123.438 290.646 125.812ZM290.646 132.146 288.271 132.146 288.271 129.771 290.646 129.771 290.646 132.146ZM290.646 138.479 288.271 138.479 288.271 136.104 290.646 136.104 290.646 138.479ZM304.5 140.854 304.5 114.333 303.312 114.333 303.312 111.958 302.125 111.958 302.125 110.375 287.875 110.375 287.875 111.958 286.688 111.958 286.688 114.333 285.5 114.333 285.5 140.854 283.917 140.854 283.917 143.625 306.083 143.625 306.083 140.854 304.5 140.854Z" fill="#BEAF87"/></g></svg>