<svg width="30" height="30" xmlns="http://www.w3.org/2000/svg" xmlns:xlink="http://www.w3.org/1999/xlink" xml:space="preserve" overflow="hidden"><g transform="translate(-330 -117)"><path d="M352.5 127.875 352.5 122.625 350 122.625 350 125.5 345 120.75 345 120.75 331.875 133.25 333.281 134.438 345 123.312 345 123.312 356.719 134.438 358.125 133.25Z" fill="#BDAE86"/><path d="M335.625 133.969 335.625 143.25 343.125 143.25 343.125 135.438 346.875 135.438 346.875 143.25 354.375 143.25 354.375 133.969 345 125.062 335.625 133.969ZM341.25 139.188 337.5 139.188 337.5 135.438 341.25 135.438 341.25 139.188ZM348.75 135.438 352.5 135.438 352.5 139.188 348.75 139.188 348.75 135.438Z" fill="#BDAE86"/></g></svg>