<svg width="46" height="46" xmlns="http://www.w3.org/2000/svg" xmlns:xlink="http://www.w3.org/1999/xlink" xml:space="preserve" overflow="hidden"><g transform="translate(-321 -185)"><path d="M1.76813 32.3509C1.73578 32.3258 1.725 32.0095 1.73219 30.8847L1.74297 29.4508 5.31156 29.44 8.87656 29.4328 8.86938 30.8955 8.85859 32.3617 5.33672 32.3689C3.39969 32.3761 1.79328 32.3653 1.76813 32.3509Z" fill="#BEAF87" transform="matrix(1 0 0 -1 321 231)"/><path d="M9.55937 30.9062 9.55937 29.4328 13.1352 29.4328 16.7109 29.4328 16.7109 30.9062 16.7109 32.3797 13.1352 32.3797 9.55937 32.3797 9.55937 30.9062Z" fill="#BEAF87" transform="matrix(1 0 0 -1 321 231)"/><path d="M17.4189 32.3545C17.4045 32.3438 17.3938 31.6789 17.3938 30.8811L17.3938 29.4328 20.9516 29.4328 24.5094 29.4328 24.5022 30.8991 24.4914 32.3617 20.9659 32.3725C19.0289 32.3761 17.4297 32.3689 17.4189 32.3545Z" fill="#BEAF87" transform="matrix(1 0 0 -1 321 231)"/><path d="M25.2173 32.3545C25.203 32.3438 25.1922 31.6789 25.1922 30.8811L25.1922 29.4328 28.768 29.4328 32.3438 29.4328 32.3366 30.8991 32.3258 32.3617 28.7823 32.3725C26.8345 32.3761 25.2281 32.3689 25.2173 32.3545Z" fill="#BEAF87" transform="matrix(1 0 0 -1 321 231)"/><path d="M33.0517 32.3545C33.0373 32.3438 33.0266 31.6789 33.0266 30.8811L33.0266 29.4328 36.5952 29.44 40.1602 29.4508 40.1709 30.8847C40.1781 32.0095 40.1673 32.3258 40.135 32.3509 40.0775 32.3833 33.0841 32.3905 33.0517 32.3545Z" fill="#BEAF87" transform="matrix(1 0 0 -1 321 231)"/><path d="M6.21719 27.5102 6.21719 26.0547 9.78578 26.0619 13.3508 26.0727 13.3508 27.5102 13.3508 28.9477 9.78578 28.9584 6.21719 28.9656 6.21719 27.5102Z" fill="#BEAF87" transform="matrix(1 0 0 -1 321 231)"/><path d="M14.0228 27.503 14.0336 26.0367 17.5914 26.0367 21.1492 26.0367 21.16 27.503 21.1672 28.9656 17.5914 28.9656 14.0156 28.9656 14.0228 27.503Z" fill="#BEAF87" transform="matrix(1 0 0 -1 321 231)"/><path d="M21.85 27.5102 21.85 26.0547 25.4258 26.0547 29.0016 26.0547 29.0016 27.5102 29.0016 28.9656 25.4258 28.9656 21.85 28.9656 21.85 27.5102Z" fill="#BEAF87" transform="matrix(1 0 0 -1 321 231)"/><path d="M29.6844 27.5102 29.6844 26.0547 33.2422 26.0547 36.8 26.0547 36.8 27.5102 36.8 28.9656 33.2422 28.9656 29.6844 28.9656 29.6844 27.5102Z" fill="#BEAF87" transform="matrix(1 0 0 -1 321 231)"/><path d="M37.4828 27.5102 37.4828 26.0547 41.0586 26.0547 44.6344 26.0547 44.6344 27.5102 44.6344 28.9656 41.0586 28.9656 37.4828 28.9656 37.4828 27.5102Z" fill="#BEAF87" transform="matrix(1 0 0 -1 321 231)"/><path d="M9.58453 25.5623C9.57016 25.5516 9.55937 24.8867 9.55937 24.0889L9.55937 22.6406 13.1352 22.6406 16.7109 22.6406 16.7038 24.1069 16.693 25.5695 13.1495 25.5803C11.2017 25.5839 9.59531 25.5767 9.58453 25.5623Z" fill="#BEAF87" transform="matrix(1 0 0 -1 321 231)"/><path d="M1.73219 24.1069 1.74297 22.6586 5.31156 22.6478 8.87656 22.6406 8.87656 24.0961 8.87656 25.5516 5.30078 25.5516 1.725 25.5516 1.73219 24.1069Z" fill="#BEAF87" transform="matrix(1 0 0 -1 321 231)"/><path d="M17.3938 24.0961 17.3938 22.6406 20.9516 22.6406 24.5094 22.6406 24.5094 24.0961 24.5094 25.5516 20.9516 25.5516 17.3938 25.5516 17.3938 24.0961Z" fill="#BEAF87" transform="matrix(1 0 0 -1 321 231)"/><path d="M25.1922 24.0961 25.1922 22.6406 28.768 22.6406 32.3438 22.6406 32.3438 24.0961 32.3438 25.5516 28.768 25.5516 25.1922 25.5516 25.1922 24.0961Z" fill="#BEAF87" transform="matrix(1 0 0 -1 321 231)"/><path d="M33.0266 24.0961 33.0266 22.6406 36.5952 22.6478 40.1602 22.6586 40.1602 24.0961 40.1602 25.5336 36.5952 25.5444 33.0266 25.5516 33.0266 24.0961Z" fill="#BEAF87" transform="matrix(1 0 0 -1 321 231)"/><path d="M5.11031 20.7108 5.12109 19.2445 8.66094 19.2445 12.2008 19.2445 12.2116 20.7108 12.2188 22.1734 8.66094 22.1734 5.10313 22.1734 5.11031 20.7108Z" fill="#BEAF87" transform="matrix(1 0 0 -1 321 231)"/><path d="M12.9016 20.7 12.9016 19.2266 16.4773 19.2266 20.0531 19.2266 20.0531 20.7 20.0531 22.1734 16.4773 22.1734 12.9016 22.1734 12.9016 20.7Z" fill="#BEAF87" transform="matrix(1 0 0 -1 321 231)"/><path d="M20.7431 20.7108 20.7539 19.2445 24.2398 19.2338C26.1589 19.2302 27.7617 19.2338 27.8084 19.2445L27.8875 19.2625 27.8803 20.7108 27.8695 22.1555 24.3009 22.1663 20.7359 22.1734 20.7431 20.7108Z" fill="#BEAF87" transform="matrix(1 0 0 -1 321 231)"/><path d="M28.5595 22.1483C28.5452 22.1375 28.5344 21.4834 28.5344 20.6964L28.5344 19.2625 28.617 19.2445C28.6602 19.2338 30.2666 19.2302 32.182 19.2338L35.668 19.2445 35.6787 20.7108 35.6859 22.1734 32.1353 22.1734C30.1803 22.1734 28.5703 22.1627 28.5595 22.1483Z" fill="#BEAF87" transform="matrix(1 0 0 -1 321 231)"/><path d="M36.3759 20.7108 36.3867 19.2445 39.8727 19.2338C41.7917 19.2302 43.3945 19.2338 43.4412 19.2445L43.5203 19.2625 43.5203 20.718 43.5203 22.1734 39.9445 22.1734 36.3688 22.1734 36.3759 20.7108Z" fill="#BEAF87" transform="matrix(1 0 0 -1 321 231)"/><path d="M2.04844 16.8727 2.04844 15.4172 5.62422 15.4172 9.2 15.4172 9.2 16.8727 9.2 18.3281 5.62422 18.3281 2.04844 18.3281 2.04844 16.8727Z" fill="#BEAF87" transform="matrix(1 0 0 -1 321 231)"/><path d="M9.88281 16.8727 9.88281 15.4172 13.4586 15.4172 17.0344 15.4172 17.0344 16.8727 17.0344 18.3281 13.4586 18.3281 9.88281 18.3281 9.88281 16.8727Z" fill="#BEAF87" transform="matrix(1 0 0 -1 321 231)"/><path d="M17.6992 18.2814C17.6884 18.2598 17.6848 17.6058 17.6884 16.8367L17.6992 15.4352 21.2678 15.4244 24.8328 15.4172 24.8328 16.8727 24.8328 18.3281 21.275 18.3281C18.4575 18.3281 17.71 18.3173 17.6992 18.2814Z" fill="#BEAF87" transform="matrix(1 0 0 -1 321 231)"/><path d="M25.5156 16.8727 25.5156 15.4172 29.0842 15.4244 32.6492 15.4352 32.66 16.8834 32.6672 18.3281 29.0914 18.3281 25.5156 18.3281 25.5156 16.8727Z" fill="#BEAF87" transform="matrix(1 0 0 -1 321 231)"/><path d="M33.35 16.8727 33.35 15.4172 36.9078 15.4172 40.4656 15.4172 40.4656 16.8727 40.4656 18.3281 36.9078 18.3281 33.35 18.3281 33.35 16.8727Z" fill="#BEAF87" transform="matrix(1 0 0 -1 321 231)"/><path d="M5.40859 14.9033C5.39781 14.8817 5.39422 14.2277 5.39781 13.4586L5.40859 12.057 8.97719 12.0463 12.5422 12.0391 12.5422 13.4945 12.5422 14.95 8.98438 14.95C6.16687 14.95 5.41937 14.9392 5.40859 14.9033Z" fill="#BEAF87" transform="matrix(1 0 0 -1 321 231)"/><path d="M13.2322 13.4873 13.243 12.0211 16.8008 12.0211 20.3586 12.0211 20.3694 13.4873 20.3766 14.95 16.8008 14.95 13.225 14.95 13.2322 13.4873Z" fill="#BEAF87" transform="matrix(1 0 0 -1 321 231)"/><path d="M21.0594 13.4945 21.0594 12.0391 24.6172 12.0391 28.175 12.0391 28.175 13.4945 28.175 14.95 24.6172 14.95 21.0594 14.95 21.0594 13.4945Z" fill="#BEAF87" transform="matrix(1 0 0 -1 321 231)"/><path d="M28.883 14.9248C28.8686 14.9141 28.8578 14.2564 28.8578 13.4694L28.8578 12.0391 32.4336 12.0391 36.0094 12.0391 36.0094 13.4945 36.0094 14.95 32.4588 14.95C30.5037 14.95 28.8938 14.9392 28.883 14.9248Z" fill="#BEAF87" transform="matrix(1 0 0 -1 321 231)"/><path d="M36.6922 13.4945 36.6922 12.0391 40.268 12.0391 43.8438 12.0391 43.8366 13.4873 43.8258 14.932 40.2608 14.9428 36.6922 14.95 36.6922 13.4945Z" fill="#BEAF87" transform="matrix(1 0 0 -1 321 231)"/><path d="M8.76875 10.0805 8.76875 8.625 12.3445 8.625 15.9203 8.625 15.9203 10.0805 15.9203 11.5359 12.3445 11.5359 8.76875 11.5359 8.76875 10.0805Z" fill="#BEAF87" transform="matrix(1 0 0 -1 321 231)"/><path d="M16.5672 10.0805 16.5672 8.625 20.143 8.625 23.7188 8.625 23.7188 10.0805 23.7188 11.5359 20.143 11.5359 16.5672 11.5359 16.5672 10.0805Z" fill="#BEAF87" transform="matrix(1 0 0 -1 321 231)"/><path d="M24.4016 10.0805 24.4016 8.625 27.9773 8.625 31.5531 8.625 31.5531 10.0805 31.5531 11.5359 27.9773 11.5359 24.4016 11.5359 24.4016 10.0805Z" fill="#BEAF87" transform="matrix(1 0 0 -1 321 231)"/><path d="M32.218 11.4892C32.2072 11.4677 32.2036 10.8136 32.2072 10.0445L32.218 8.64297 35.7866 8.63219 39.3516 8.625 39.3516 10.0805 39.3516 11.5359 35.7938 11.5359C32.9762 11.5359 32.2288 11.5252 32.218 11.4892Z" fill="#BEAF87" transform="matrix(1 0 0 -1 321 231)"/><path d="M5.40859 8.11109C5.39781 8.08953 5.39422 7.42828 5.39781 6.64844L5.40859 5.22891 8.97719 5.21812 12.5422 5.21094 12.5422 6.68438 12.5422 8.15781 8.98438 8.15781C6.16687 8.15781 5.41937 8.14703 5.40859 8.11109Z" fill="#BEAF87" transform="matrix(1 0 0 -1 321 231)"/><path d="M13.225 6.68438 13.225 5.21094 16.8008 5.21094 20.3766 5.21094 20.3766 6.68438 20.3766 8.15781 16.8008 8.15781 13.225 8.15781 13.225 6.68438Z" fill="#BEAF87" transform="matrix(1 0 0 -1 321 231)"/><path d="M21.0594 6.68438 21.0594 5.21094 24.6172 5.21094 28.175 5.21094 28.175 6.68438 28.175 8.15781 24.6172 8.15781 21.0594 8.15781 21.0594 6.68438Z" fill="#BEAF87" transform="matrix(1 0 0 -1 321 231)"/><path d="M28.8758 8.11109C28.865 8.08953 28.8614 7.42828 28.865 6.64844L28.8758 5.22891 32.4444 5.21812 36.0094 5.21094 36.0094 6.68438 36.0094 8.15781 32.4516 8.15781C29.6341 8.15781 28.8866 8.14703 28.8758 8.11109Z" fill="#BEAF87" transform="matrix(1 0 0 -1 321 231)"/><path d="M36.6922 6.68438 36.6922 5.24688 40.25 5.24688 43.8042 5.24688 43.815 6.65922C43.8222 7.43188 43.8222 8.07875 43.815 8.09672 43.8078 8.11109 42.205 8.12187 40.2464 8.12187L36.6922 8.12187 36.6922 6.68438Z" fill="#BEAF87" transform="matrix(1 0 0 -1 321 231)"/></g></svg>